<svg xmlns="http://www.w3.org/2000/svg" xmlns:xlink="http://www.w3.org/1999/xlink" contentStyleType="text/css" data-diagram-type="CLASS" height="295px" preserveAspectRatio="none" style="width:448px;height:295px;background:#FFFFFF;" version="1.1" viewBox="0 0 448 295" width="448px" zoomAndPan="magnify"><defs/><g><!--class SearchProvider2--><g class="entity" data-entity="SearchProvider2" data-source-line="4" data-uid="ent0002" id="entity_SearchProvider2"><rect fill="#F1F1F1" height="32" rx="2.5" ry="2.5" style="stroke:#181818;stroke-width:0.5;" width="133.9476" x="11.5" y="7"/><ellipse cx="26.5" cy="23" fill="#B4A7E5" rx="11" ry="11" style="stroke:#181818;stroke-width:1;"/><path d="M22.4219,18.7656 L22.4219,16.6094 L29.8125,16.6094 L29.8125,18.7656 L27.3438,18.7656 L27.3438,26.8438 L29.8125,26.8438 L29.8125,29 L22.4219,29 L22.4219,26.8438 L24.8906,26.8438 L24.8906,18.7656 L22.4219,18.7656 Z " fill="#000000"/><text fill="#000000" font-family="sans-serif" font-size="14" font-style="italic" lengthAdjust="spacing" textLength="101.9476" x="40.5" y="28.432">SearchProvider2</text></g><!--class ExampleExtension--><g class="entity" data-entity="ExampleExtension" data-source-line="5" data-uid="ent0003" id="entity_ExampleExtension"><rect fill="#F1F1F1" height="32" rx="2.5" ry="2.5" style="stroke:#181818;stroke-width:0.5;" width="152.4835" x="289.5" y="118"/><ellipse cx="304.5" cy="134" fill="#ADD1B2" rx="11" ry="11" style="stroke:#181818;stroke-width:1;"/><path d="M307.4688,139.6406 Q306.8906,139.9375 306.25,140.0781 Q305.6094,140.2344 304.9063,140.2344 Q302.4063,140.2344 301.0781,138.5938 Q299.7656,136.9375 299.7656,133.8125 Q299.7656,130.6875 301.0781,129.0313 Q302.4063,127.375 304.9063,127.375 Q305.6094,127.375 306.25,127.5313 Q306.9063,127.6875 307.4688,127.9844 L307.4688,130.7031 Q306.8438,130.125 306.25,129.8594 Q305.6563,129.5781 305.0313,129.5781 Q303.6875,129.5781 303,130.6563 Q302.3125,131.7188 302.3125,133.8125 Q302.3125,135.9063 303,136.9844 Q303.6875,138.0469 305.0313,138.0469 Q305.6563,138.0469 306.25,137.7813 Q306.8438,137.5 307.4688,136.9219 L307.4688,139.6406 Z " fill="#000000"/><text fill="#000000" font-family="sans-serif" font-size="14" lengthAdjust="spacing" textLength="120.4835" x="318.5" y="139.432">ExampleExtension</text></g><!--class SearchProvider--><g class="entity" data-entity="SearchProvider" data-source-line="6" data-uid="ent0004" id="entity_SearchProvider"><rect fill="#F1F1F1" height="32" rx="2.5" ry="2.5" style="stroke:#181818;stroke-width:0.5;" width="132.3236" x="12.5" y="118"/><ellipse cx="27.5" cy="134" fill="#ADD1B2" rx="11" ry="11" style="stroke:#181818;stroke-width:1;"/><path d="M30.4688,139.6406 Q29.8906,139.9375 29.25,140.0781 Q28.6094,140.2344 27.9063,140.2344 Q25.4063,140.2344 24.0781,138.5938 Q22.7656,136.9375 22.7656,133.8125 Q22.7656,130.6875 24.0781,129.0313 Q25.4063,127.375 27.9063,127.375 Q28.6094,127.375 29.25,127.5313 Q29.9063,127.6875 30.4688,127.9844 L30.4688,130.7031 Q29.8438,130.125 29.25,129.8594 Q28.6563,129.5781 28.0313,129.5781 Q26.6875,129.5781 26,130.6563 Q25.3125,131.7188 25.3125,133.8125 Q25.3125,135.9063 26,136.9844 Q26.6875,138.0469 28.0313,138.0469 Q28.6563,138.0469 29.25,137.7813 Q29.8438,137.5 30.4688,136.9219 L30.4688,139.6406 Z " fill="#000000"/><text fill="#000000" font-family="sans-serif" font-size="14" lengthAdjust="spacing" textLength="100.3236" x="41.5" y="139.432">SearchProvider</text></g><!--class SearchEngine--><g class="entity" data-entity="SearchEngine" data-source-line="8" data-uid="ent0005" id="entity_SearchEngine"><rect fill="#F1F1F1" height="59.0679" rx="2.5" ry="2.5" style="stroke:#181818;stroke-width:0.5;" width="142.8995" x="7" y="229"/><ellipse cx="31.4967" cy="245" fill="#ADD1B2" rx="11" ry="11" style="stroke:#181818;stroke-width:1;"/><path d="M34.4655,250.6406 Q33.8874,250.9375 33.2467,251.0781 Q32.6061,251.2344 31.903,251.2344 Q29.403,251.2344 28.0749,249.5938 Q26.7624,247.9375 26.7624,244.8125 Q26.7624,241.6875 28.0749,240.0313 Q29.403,238.375 31.903,238.375 Q32.6061,238.375 33.2467,238.5313 Q33.903,238.6875 34.4655,238.9844 L34.4655,241.7031 Q33.8405,241.125 33.2467,240.8594 Q32.653,240.5781 32.028,240.5781 Q30.6842,240.5781 29.9967,241.6563 Q29.3092,242.7188 29.3092,244.8125 Q29.3092,246.9063 29.9967,247.9844 Q30.6842,249.0469 32.028,249.0469 Q32.653,249.0469 33.2467,248.7813 Q33.8405,248.5 34.4655,247.9219 L34.4655,250.6406 Z " fill="#000000"/><text fill="#000000" font-family="sans-serif" font-size="14" lengthAdjust="spacing" textLength="89.7956" x="47.6071" y="250.432">SearchEngine</text><line style="stroke:#181818;stroke-width:0.5;" x1="8" x2="148.8995" y1="261" y2="261"/><text fill="#000000" font-family="sans-serif" font-size="14" font-style="italic" lengthAdjust="spacing" textLength="130.8995" x="13" y="279.9659">search business logic</text></g><!--reverse link SearchProvider to ExampleExtension--><g class="link" data-entity-1="SearchProvider" data-entity-2="ExampleExtension" data-source-line="13" data-uid="lnk7" id="link_SearchProvider_ExampleExtension"><path codeLine="13" d="M150.7,134 C193.91,134 244.44,134 289.49,134" fill="none" id="SearchProvider-backto-ExampleExtension" style="stroke:#181818;stroke-width:1;stroke-dasharray:7,7;"/><polygon fill="#181818" points="144.7,134,153.7,138,149.7,134,153.7,130,144.7,134" style="stroke:#181818;stroke-width:1;"/><text fill="#000000" font-family="sans-serif" font-size="13" lengthAdjust="spacing" textLength="108.0171" x="163" y="126.897">manages lifecycle</text></g><!--link SearchProvider to SearchEngine--><g class="link" data-entity-1="SearchProvider" data-entity-2="SearchEngine" data-source-line="14" data-uid="lnk8" id="link_SearchProvider_SearchEngine"><path codeLine="14" d="M78.5,150.02 C78.5,169.57 78.5,186.14 78.5,210.8" fill="none" id="SearchProvider-to-SearchEngine" style="stroke:#181818;stroke-width:1;"/><polygon fill="none" points="78.5,228.8,84.5,210.8,72.5,210.8,78.5,228.8" style="stroke:#181818;stroke-width:1;"/><text fill="#000000" font-family="sans-serif" font-size="13" lengthAdjust="spacing" textLength="48.49" x="79.5" y="194.897">extends</text></g><!--reverse link SearchProvider2 to SearchProvider--><g class="link" data-entity-1="SearchProvider2" data-entity-2="SearchProvider" data-source-line="15" data-uid="lnk10" id="link_SearchProvider2_SearchProvider"><path codeLine="15" d="M78.5,57.16 C78.5,77.98 78.5,97.22 78.5,117.97" fill="none" id="SearchProvider2-backto-SearchProvider" style="stroke:#181818;stroke-width:1;stroke-dasharray:7,7;"/><polygon fill="none" points="78.5,39.16,72.5,57.16,84.5,57.16,78.5,39.16" style="stroke:#181818;stroke-width:1;"/><text fill="#000000" font-family="sans-serif" font-size="13" lengthAdjust="spacing" textLength="72.6311" x="79.5" y="83.897">implements</text></g><!--SRC=[NOun3eCm40JxUyLz05kYfA2ZZvGN6BE09TiWsqIWaB_7H6dmbQFPlPtD08PRqy4EhaU8HCOdX55fy1CgwFaHbbVMGatQgXYvsvLRBRezmKUp-3- -otIZdP-C1x-9yqaPVv3xBMQQ9RjCHaj97o8gsrbOZ4cqHJytx9HN4tBQZD27jg12gQgplGze65Vl44jLRAiuonzrziqrni6dI5y0]--></g></svg>