<svg xmlns="http://www.w3.org/2000/svg" xmlns:xlink="http://www.w3.org/1999/xlink" contentStyleType="text/css" data-diagram-type="SEQUENCE" height="2071px" preserveAspectRatio="none" style="width:896px;height:2071px;background:#FFFFFF;" version="1.1" viewBox="0 0 896 2071" width="896px" zoomAndPan="magnify"><defs/><g><g><title>SearchProvider</title><rect fill="#FFFFFF" height="220.438" style="stroke:#181818;stroke-width:1;" width="10" x="410.5659" y="331.5195"/></g><g><title>SearchProvider</title><rect fill="#FFFFFF" height="88.9716" style="stroke:#181818;stroke-width:1;" width="10" x="410.5659" y="671.7963"/></g><g><title>SearchProvider</title><rect fill="#FFFFFF" height="71.2656" style="stroke:#181818;stroke-width:1;" width="10" x="410.5659" y="880.6068"/></g><g><title>SearchProvider</title><rect fill="#FFFFFF" height="279.144" style="stroke:#181818;stroke-width:1;" width="10" x="410.5659" y="1109.4173"/></g><g><title>SearchProvider</title><rect fill="#FFFFFF" height="29.1328" style="stroke:#181818;stroke-width:1;" width="10" x="410.5659" y="1560.1061"/></g><g><title>SearchEngine</title><rect fill="#FFFFFF" height="144.4664" style="stroke:#181818;stroke-width:1;" width="10" x="648.0591" y="360.6523"/></g><g><title>SearchEngine</title><rect fill="#FFFFFF" height="144.4664" style="stroke:#181818;stroke-width:1;" width="10" x="648.0591" y="1190.2561"/></g><g><title>Subprocess</title><rect fill="#FFFFFF" height="34.0679" style="stroke:#181818;stroke-width:1;" width="10" x="830.7656" y="399.7851"/></g><g><title>Subprocess</title><rect fill="#FFFFFF" height="34.0679" style="stroke:#181818;stroke-width:1;" width="10" x="830.7656" y="1229.3889"/></g><rect fill="none" height="218.3052" style="stroke:#AAAAAA;stroke-width:1;" width="542.2804" x="348.4041" y="1124.4173"/><rect fill="none" height="102.9716" style="stroke:#AAAAAA;stroke-width:1;" width="472.7277" x="10" y="1494.2673"/><g><title>GNOME Shell</title><rect fill="#000000" fill-opacity="0.00000" height="10" width="8" x="66.6728" y="58.1358"/><line style="stroke:#181818;stroke-width:0.5;stroke-dasharray:5,5;" x1="70" x2="70" y1="58.1358" y2="68.1358"/></g><line style="stroke:#181818;stroke-width:0.5;stroke-dasharray:1,4;" x1="70" x2="70" y1="68.1358" y2="96.1358"/><g><title>GNOME Shell</title><rect fill="#000000" fill-opacity="0.00000" height="123.5448" width="8" x="66.6728" y="96.1358"/><line style="stroke:#181818;stroke-width:0.5;stroke-dasharray:5,5;" x1="70" x2="70" y1="96.1358" y2="219.6807"/></g><line style="stroke:#181818;stroke-width:0.5;stroke-dasharray:1,4;" x1="70" x2="70" y1="219.6807" y2="247.6807"/><g><title>GNOME Shell</title><rect fill="#000000" fill-opacity="0.00000" height="312.2768" width="8" x="66.6728" y="247.6807"/><line style="stroke:#181818;stroke-width:0.5;stroke-dasharray:5,5;" x1="70" x2="70" y1="247.6807" y2="559.9575"/></g><line style="stroke:#181818;stroke-width:0.5;stroke-dasharray:1,4;" x1="70" x2="70" y1="559.9575" y2="587.9575"/><g><title>GNOME Shell</title><rect fill="#000000" fill-opacity="0.00000" height="180.8105" width="8" x="66.6728" y="587.9575"/><line style="stroke:#181818;stroke-width:0.5;stroke-dasharray:5,5;" x1="70" x2="70" y1="587.9575" y2="768.768"/></g><line style="stroke:#181818;stroke-width:0.5;stroke-dasharray:1,4;" x1="70" x2="70" y1="768.768" y2="796.768"/><g><title>GNOME Shell</title><rect fill="#000000" fill-opacity="0.00000" height="163.1045" width="8" x="66.6728" y="796.768"/><line style="stroke:#181818;stroke-width:0.5;stroke-dasharray:5,5;" x1="70" x2="70" y1="796.768" y2="959.8724"/></g><line style="stroke:#181818;stroke-width:0.5;stroke-dasharray:1,4;" x1="70" x2="70" y1="959.8724" y2="987.8724"/><g><title>GNOME Shell</title><rect fill="#000000" fill-opacity="0.00000" height="408.6889" width="8" x="66.6728" y="987.8724"/><line style="stroke:#181818;stroke-width:0.5;stroke-dasharray:5,5;" x1="70" x2="70" y1="987.8724" y2="1396.5613"/></g><line style="stroke:#181818;stroke-width:0.5;stroke-dasharray:1,4;" x1="70" x2="70" y1="1396.5613" y2="1424.5613"/><g><title>GNOME Shell</title><rect fill="#000000" fill-opacity="0.00000" height="274.3837" width="8" x="66.6728" y="1424.5613"/><line style="stroke:#181818;stroke-width:0.5;stroke-dasharray:5,5;" x1="70" x2="70" y1="1424.5613" y2="1698.945"/></g><line style="stroke:#181818;stroke-width:0.5;stroke-dasharray:1,4;" x1="70" x2="70" y1="1698.945" y2="1726.945"/><g><title>GNOME Shell</title><rect fill="#000000" fill-opacity="0.00000" height="135.9067" width="8" x="66.6728" y="1726.945"/><line style="stroke:#181818;stroke-width:0.5;stroke-dasharray:5,5;" x1="70" x2="70" y1="1726.945" y2="1862.8517"/></g><line style="stroke:#181818;stroke-width:0.5;stroke-dasharray:1,4;" x1="70" x2="70" y1="1862.8517" y2="1890.8517"/><g><title>GNOME Shell</title><rect fill="#000000" fill-opacity="0.00000" height="135.9067" width="8" x="66.6728" y="1890.8517"/><line style="stroke:#181818;stroke-width:0.5;stroke-dasharray:5,5;" x1="70" x2="70" y1="1890.8517" y2="2026.7585"/></g><line style="stroke:#181818;stroke-width:0.5;stroke-dasharray:1,4;" x1="70" x2="70" y1="2026.7585" y2="2054.7585"/><g><title>GNOME Shell</title><rect fill="#000000" fill-opacity="0.00000" height="10" width="8" x="66.6728" y="2054.7585"/><line style="stroke:#181818;stroke-width:0.5;stroke-dasharray:5,5;" x1="70" x2="70" y1="2054.7585" y2="2064.7585"/></g><g><title>SearchProvider</title><rect fill="#000000" fill-opacity="0.00000" height="10" width="8" x="411.5659" y="58.1358"/><line style="stroke:#181818;stroke-width:0.5;stroke-dasharray:5,5;" x1="415.4041" x2="415.4041" y1="58.1358" y2="68.1358"/></g><line style="stroke:#181818;stroke-width:0.5;stroke-dasharray:1,4;" x1="415.4041" x2="415.4041" y1="68.1358" y2="96.1358"/><g><title>SearchProvider</title><rect fill="#000000" fill-opacity="0.00000" height="123.5448" width="8" x="411.5659" y="96.1358"/><line style="stroke:#181818;stroke-width:0.5;stroke-dasharray:5,5;" x1="415.4041" x2="415.4041" y1="96.1358" y2="219.6807"/></g><line style="stroke:#181818;stroke-width:0.5;stroke-dasharray:1,4;" x1="415.4041" x2="415.4041" y1="219.6807" y2="247.6807"/><g><title>SearchProvider</title><rect fill="#000000" fill-opacity="0.00000" height="312.2768" width="8" x="411.5659" y="247.6807"/><line style="stroke:#181818;stroke-width:0.5;stroke-dasharray:5,5;" x1="415.4041" x2="415.4041" y1="247.6807" y2="559.9575"/></g><line style="stroke:#181818;stroke-width:0.5;stroke-dasharray:1,4;" x1="415.4041" x2="415.4041" y1="559.9575" y2="587.9575"/><g><title>SearchProvider</title><rect fill="#000000" fill-opacity="0.00000" height="180.8105" width="8" x="411.5659" y="587.9575"/><line style="stroke:#181818;stroke-width:0.5;stroke-dasharray:5,5;" x1="415.4041" x2="415.4041" y1="587.9575" y2="768.768"/></g><line style="stroke:#181818;stroke-width:0.5;stroke-dasharray:1,4;" x1="415.4041" x2="415.4041" y1="768.768" y2="796.768"/><g><title>SearchProvider</title><rect fill="#000000" fill-opacity="0.00000" height="163.1045" width="8" x="411.5659" y="796.768"/><line style="stroke:#181818;stroke-width:0.5;stroke-dasharray:5,5;" x1="415.4041" x2="415.4041" y1="796.768" y2="959.8724"/></g><line style="stroke:#181818;stroke-width:0.5;stroke-dasharray:1,4;" x1="415.4041" x2="415.4041" y1="959.8724" y2="987.8724"/><g><title>SearchProvider</title><rect fill="#000000" fill-opacity="0.00000" height="408.6889" width="8" x="411.5659" y="987.8724"/><line style="stroke:#181818;stroke-width:0.5;stroke-dasharray:5,5;" x1="415.4041" x2="415.4041" y1="987.8724" y2="1396.5613"/></g><line style="stroke:#181818;stroke-width:0.5;stroke-dasharray:1,4;" x1="415.4041" x2="415.4041" y1="1396.5613" y2="1424.5613"/><g><title>SearchProvider</title><rect fill="#000000" fill-opacity="0.00000" height="274.3837" width="8" x="411.5659" y="1424.5613"/><line style="stroke:#181818;stroke-width:0.5;stroke-dasharray:5,5;" x1="415.4041" x2="415.4041" y1="1424.5613" y2="1698.945"/></g><line style="stroke:#181818;stroke-width:0.5;stroke-dasharray:1,4;" x1="415.4041" x2="415.4041" y1="1698.945" y2="1726.945"/><g><title>SearchProvider</title><rect fill="#000000" fill-opacity="0.00000" height="135.9067" width="8" x="411.5659" y="1726.945"/><line style="stroke:#181818;stroke-width:0.5;stroke-dasharray:5,5;" x1="415.4041" x2="415.4041" y1="1726.945" y2="1862.8517"/></g><line style="stroke:#181818;stroke-width:0.5;stroke-dasharray:1,4;" x1="415.4041" x2="415.4041" y1="1862.8517" y2="1890.8517"/><g><title>SearchProvider</title><rect fill="#000000" fill-opacity="0.00000" height="135.9067" width="8" x="411.5659" y="1890.8517"/><line style="stroke:#181818;stroke-width:0.5;stroke-dasharray:5,5;" x1="415.4041" x2="415.4041" y1="1890.8517" y2="2026.7585"/></g><line style="stroke:#181818;stroke-width:0.5;stroke-dasharray:1,4;" x1="415.4041" x2="415.4041" y1="2026.7585" y2="2054.7585"/><g><title>SearchProvider</title><rect fill="#000000" fill-opacity="0.00000" height="10" width="8" x="411.5659" y="2054.7585"/><line style="stroke:#181818;stroke-width:0.5;stroke-dasharray:5,5;" x1="415.4041" x2="415.4041" y1="2054.7585" y2="2064.7585"/></g><g><title>SearchEngine</title><rect fill="#000000" fill-opacity="0.00000" height="10" width="8" x="649.0591" y="58.1358"/><line style="stroke:#181818;stroke-width:0.5;stroke-dasharray:5,5;" x1="652.6953" x2="652.6953" y1="58.1358" y2="68.1358"/></g><line style="stroke:#181818;stroke-width:0.5;stroke-dasharray:1,4;" x1="652.6953" x2="652.6953" y1="68.1358" y2="96.1358"/><g><title>SearchEngine</title><rect fill="#000000" fill-opacity="0.00000" height="123.5448" width="8" x="649.0591" y="96.1358"/><line style="stroke:#181818;stroke-width:0.5;stroke-dasharray:5,5;" x1="652.6953" x2="652.6953" y1="96.1358" y2="219.6807"/></g><line style="stroke:#181818;stroke-width:0.5;stroke-dasharray:1,4;" x1="652.6953" x2="652.6953" y1="219.6807" y2="247.6807"/><g><title>SearchEngine</title><rect fill="#000000" fill-opacity="0.00000" height="312.2768" width="8" x="649.0591" y="247.6807"/><line style="stroke:#181818;stroke-width:0.5;stroke-dasharray:5,5;" x1="652.6953" x2="652.6953" y1="247.6807" y2="559.9575"/></g><line style="stroke:#181818;stroke-width:0.5;stroke-dasharray:1,4;" x1="652.6953" x2="652.6953" y1="559.9575" y2="587.9575"/><g><title>SearchEngine</title><rect fill="#000000" fill-opacity="0.00000" height="180.8105" width="8" x="649.0591" y="587.9575"/><line style="stroke:#181818;stroke-width:0.5;stroke-dasharray:5,5;" x1="652.6953" x2="652.6953" y1="587.9575" y2="768.768"/></g><line style="stroke:#181818;stroke-width:0.5;stroke-dasharray:1,4;" x1="652.6953" x2="652.6953" y1="768.768" y2="796.768"/><g><title>SearchEngine</title><rect fill="#000000" fill-opacity="0.00000" height="163.1045" width="8" x="649.0591" y="796.768"/><line style="stroke:#181818;stroke-width:0.5;stroke-dasharray:5,5;" x1="652.6953" x2="652.6953" y1="796.768" y2="959.8724"/></g><line style="stroke:#181818;stroke-width:0.5;stroke-dasharray:1,4;" x1="652.6953" x2="652.6953" y1="959.8724" y2="987.8724"/><g><title>SearchEngine</title><rect fill="#000000" fill-opacity="0.00000" height="408.6889" width="8" x="649.0591" y="987.8724"/><line style="stroke:#181818;stroke-width:0.5;stroke-dasharray:5,5;" x1="652.6953" x2="652.6953" y1="987.8724" y2="1396.5613"/></g><line style="stroke:#181818;stroke-width:0.5;stroke-dasharray:1,4;" x1="652.6953" x2="652.6953" y1="1396.5613" y2="1424.5613"/><g><title>SearchEngine</title><rect fill="#000000" fill-opacity="0.00000" height="274.3837" width="8" x="649.0591" y="1424.5613"/><line style="stroke:#181818;stroke-width:0.5;stroke-dasharray:5,5;" x1="652.6953" x2="652.6953" y1="1424.5613" y2="1698.945"/></g><line style="stroke:#181818;stroke-width:0.5;stroke-dasharray:1,4;" x1="652.6953" x2="652.6953" y1="1698.945" y2="1726.945"/><g><title>SearchEngine</title><rect fill="#000000" fill-opacity="0.00000" height="135.9067" width="8" x="649.0591" y="1726.945"/><line style="stroke:#181818;stroke-width:0.5;stroke-dasharray:5,5;" x1="652.6953" x2="652.6953" y1="1726.945" y2="1862.8517"/></g><line style="stroke:#181818;stroke-width:0.5;stroke-dasharray:1,4;" x1="652.6953" x2="652.6953" y1="1862.8517" y2="1890.8517"/><g><title>SearchEngine</title><rect fill="#000000" fill-opacity="0.00000" height="135.9067" width="8" x="649.0591" y="1890.8517"/><line style="stroke:#181818;stroke-width:0.5;stroke-dasharray:5,5;" x1="652.6953" x2="652.6953" y1="1890.8517" y2="2026.7585"/></g><line style="stroke:#181818;stroke-width:0.5;stroke-dasharray:1,4;" x1="652.6953" x2="652.6953" y1="2026.7585" y2="2054.7585"/><g><title>SearchEngine</title><rect fill="#000000" fill-opacity="0.00000" height="10" width="8" x="649.0591" y="2054.7585"/><line style="stroke:#181818;stroke-width:0.5;stroke-dasharray:5,5;" x1="652.6953" x2="652.6953" y1="2054.7585" y2="2064.7585"/></g><g><title>Subprocess</title><rect fill="#000000" fill-opacity="0.00000" height="12.034" width="8" x="831.7656" y="2014.7245"/><line style="stroke:#181818;stroke-width:0.5;stroke-dasharray:5,5;" x1="834.8467" x2="834.8467" y1="2014.7245" y2="2026.7585"/></g><line style="stroke:#181818;stroke-width:0.5;stroke-dasharray:1,4;" x1="834.8467" x2="834.8467" y1="2026.7585" y2="2054.7585"/><g><title>Subprocess</title><rect fill="#000000" fill-opacity="0.00000" height="10" width="8" x="831.7656" y="2054.7585"/><line style="stroke:#181818;stroke-width:0.5;stroke-dasharray:5,5;" x1="834.8467" x2="834.8467" y1="2054.7585" y2="2064.7585"/></g><g class="participant participant-head" data-participant="Shell"><rect fill="#E2E2F0" height="33.0679" rx="2.5" ry="2.5" style="stroke:#181818;stroke-width:0.5;" width="101.3456" x="20" y="24.0679"/><text fill="#000000" font-family="sans-serif" font-size="14" lengthAdjust="spacing" textLength="87.3456" x="27" y="46.0339">GNOME Shell</text></g><g class="participant participant-head" data-participant="SearchProvider"><rect fill="#E2E2F0" height="33.0679" rx="2.5" ry="2.5" style="stroke:#181818;stroke-width:0.5;" width="114.3236" x="358.4041" y="24.0679"/><text fill="#000000" font-family="sans-serif" font-size="14" lengthAdjust="spacing" textLength="100.3236" x="365.4041" y="46.0339">SearchProvider</text></g><g class="participant participant-head" data-participant="Engine"><rect fill="#E2E2F0" height="52.1358" rx="2.5" ry="2.5" style="stroke:#181818;stroke-width:0.5;" width="140.7275" x="582.6953" y="5"/><text fill="#000000" font-family="sans-serif" font-size="14" lengthAdjust="spacing" textLength="89.7956" x="608.1612" y="26.9659">SearchEngine</text><text fill="#000000" font-family="sans-serif" font-size="14" lengthAdjust="spacing" textLength="4.2" x="589.6953" y="46.0339">(</text><text fill="#000000" font-family="sans-serif" font-size="14" font-style="italic" lengthAdjust="spacing" textLength="118.3275" x="593.8953" y="46.0339">Engine internal API</text><text fill="#000000" font-family="sans-serif" font-size="14" lengthAdjust="spacing" textLength="4.2" x="712.2228" y="46.0339">)</text></g><g><title>SearchProvider</title><rect fill="#FFFFFF" height="220.438" style="stroke:#181818;stroke-width:1;" width="10" x="410.5659" y="331.5195"/></g><g><title>SearchProvider</title><rect fill="#FFFFFF" height="88.9716" style="stroke:#181818;stroke-width:1;" width="10" x="410.5659" y="671.7963"/></g><g><title>SearchProvider</title><rect fill="#FFFFFF" height="71.2656" style="stroke:#181818;stroke-width:1;" width="10" x="410.5659" y="880.6068"/></g><g><title>SearchProvider</title><rect fill="#FFFFFF" height="279.144" style="stroke:#181818;stroke-width:1;" width="10" x="410.5659" y="1109.4173"/></g><g><title>SearchProvider</title><rect fill="#FFFFFF" height="29.1328" style="stroke:#181818;stroke-width:1;" width="10" x="410.5659" y="1560.1061"/></g><g><title>SearchEngine</title><rect fill="#FFFFFF" height="144.4664" style="stroke:#181818;stroke-width:1;" width="10" x="648.0591" y="360.6523"/></g><g><title>SearchEngine</title><rect fill="#FFFFFF" height="144.4664" style="stroke:#181818;stroke-width:1;" width="10" x="648.0591" y="1190.2561"/></g><g><title>Subprocess</title><rect fill="#FFFFFF" height="34.0679" style="stroke:#181818;stroke-width:1;" width="10" x="830.7656" y="399.7851"/></g><g><title>Subprocess</title><rect fill="#FFFFFF" height="34.0679" style="stroke:#181818;stroke-width:1;" width="10" x="830.7656" y="1229.3889"/></g><path d="M25,101.1358 L25,146.1358 L880,146.1358 L880,111.1358 L870,101.1358 L25,101.1358" fill="#FEFFDD" style="stroke:#181818;stroke-width:0.5;"/><path d="M870,101.1358 L870,111.1358 L880,111.1358 L870,101.1358" fill="#FEFFDD" style="stroke:#181818;stroke-width:0.5;"/><text fill="#000000" font-family="sans-serif" font-size="13" lengthAdjust="spacing" textLength="185.6272" x="355.5287" y="120.0328">Shell registers search provider</text><text fill="#000000" font-family="sans-serif" font-size="13" lengthAdjust="spacing" textLength="3.9" x="264.001" y="137.7389">(</text><text fill="#000000" font-family="monospace" font-size="13" lengthAdjust="spacing" textLength="101.7466" x="267.901" y="138.4819">addProvider()</text><text fill="#000000" font-family="sans-serif" font-size="13" lengthAdjust="spacing" textLength="174.1092" x="373.0276" y="137.7389">in the module implementing</text><text fill="#000000" font-family="monospace" font-size="13" lengthAdjust="spacing" textLength="78.2666" x="550.5168" y="138.4819">Extensions</text><text fill="#000000" font-family="sans-serif" font-size="13" lengthAdjust="spacing" textLength="3.9" x="628.7834" y="137.7389">)</text><g class="message" data-participant-1="Shell" data-participant-2="SearchProvider"><polygon fill="#181818" points="403.5659,178.5479,413.5659,182.5479,403.5659,186.5479,407.5659,182.5479" style="stroke:#181818;stroke-width:1;"/><line style="stroke:#181818;stroke-width:1;stroke-dasharray:2,2;" x1="70.6728" x2="409.5659" y1="182.5479" y2="182.5479"/></g><g class="message" data-participant-1="SearchProvider" data-participant-2="Shell"><polygon fill="#181818" points="81.6728,207.6807,71.6728,211.6807,81.6728,215.6807,77.6728,211.6807" style="stroke:#181818;stroke-width:1;"/><line style="stroke:#181818;stroke-width:1;" x1="75.6728" x2="414.5659" y1="211.6807" y2="211.6807"/><text fill="#000000" font-family="monospace" font-size="13" lengthAdjust="spacing" textLength="117.3999" x="87.6728" y="206.6148">{&#160;id,&#160;appInfo&#160;}</text></g><path d="M25,252.6807 L25,279.6807 L880,279.6807 L880,262.6807 L870,252.6807 L25,252.6807" fill="#FEFFDD" style="stroke:#181818;stroke-width:0.5;"/><path d="M870,252.6807 L870,262.6807 L880,262.6807 L870,252.6807" fill="#FEFFDD" style="stroke:#181818;stroke-width:0.5;"/><text fill="#000000" font-family="sans-serif" font-size="13" lengthAdjust="spacing" textLength="333.4113" x="281.6366" y="271.5777">User types search query - Shell initiates search request</text><g class="message" data-participant-1="Shell" data-participant-2="SearchProvider"><polygon fill="#181818" points="398.5659,327.5195,408.5659,331.5195,398.5659,335.5195,402.5659,331.5195" style="stroke:#181818;stroke-width:1;"/><line style="stroke:#181818;stroke-width:1;" x1="70.6728" x2="404.5659" y1="331.5195" y2="331.5195"/><text fill="#000000" font-family="monospace" font-size="13" lengthAdjust="spacing" textLength="203.4932" x="77.6728" y="326.4536">getInitialResultSet(terms)</text></g><g class="message" data-participant-1="SearchProvider" data-participant-2="Engine"><polygon fill="#181818" points="636.0591,356.6523,646.0591,360.6523,636.0591,364.6523,640.0591,360.6523" style="stroke:#181818;stroke-width:1;"/><line style="stroke:#181818;stroke-width:1;" x1="420.5659" x2="642.0591" y1="360.6523" y2="360.6523"/><text fill="#000000" font-family="monospace" font-size="13" lengthAdjust="spacing" textLength="164.3599" x="427.5659" y="355.5864">searchManPages(terms)</text></g><g class="message" data-participant-1="Engine" data-participant-2="Subprocess"><polygon fill="#181818" points="778.8467,385.7851,788.8467,389.7851,778.8467,393.7851,782.8467,389.7851" style="stroke:#181818;stroke-width:1;"/><line style="stroke:#181818;stroke-width:1;" x1="658.0591" x2="784.8467" y1="389.7851" y2="389.7851"/><text fill="#000000" font-family="monospace" font-size="13" lengthAdjust="spacing" textLength="86.0933" x="665.0591" y="384.7192">run&#160;apropos</text></g><rect fill="#E2E2F0" height="33.0679" rx="2.5" ry="2.5" style="stroke:#181818;stroke-width:0.5;" width="89.8377" x="790.8467" y="368.6523"/><text fill="#000000" font-family="sans-serif" font-size="14" lengthAdjust="spacing" textLength="75.8377" x="797.8467" y="390.6183">Subprocess</text><g class="message" data-participant-1="Subprocess" data-participant-2="Engine"><polygon fill="#181818" points="669.0591,429.8531,659.0591,433.8531,669.0591,437.8531,665.0591,433.8531" style="stroke:#181818;stroke-width:1;"/><line style="stroke:#181818;stroke-width:1;stroke-dasharray:2,2;" x1="663.0591" x2="834.7656" y1="433.8531" y2="433.8531"/><text fill="#000000" font-family="monospace" font-size="13" lengthAdjust="spacing" textLength="46.96" x="675.0591" y="428.7871">output</text></g><line style="stroke:#A80036;stroke-width:2;" x1="826.7656" x2="844.7656" y1="424.8531" y2="442.8531"/><line style="stroke:#A80036;stroke-width:2;" x1="826.7656" x2="844.7656" y1="442.8531" y2="424.8531"/><g class="message" data-participant-1="Engine" data-participant-2="Engine"><line style="stroke:#181818;stroke-width:1;" x1="658.0591" x2="700.0591" y1="462.9859" y2="462.9859"/><line style="stroke:#181818;stroke-width:1;" x1="700.0591" x2="700.0591" y1="462.9859" y2="475.9859"/><line style="stroke:#181818;stroke-width:1;" x1="659.0591" x2="700.0591" y1="475.9859" y2="475.9859"/><polygon fill="#181818" points="669.0591,471.9859,659.0591,475.9859,669.0591,479.9859,665.0591,475.9859" style="stroke:#181818;stroke-width:1;"/><text fill="#000000" font-family="monospace" font-size="13" lengthAdjust="spacing" textLength="148.7065" x="665.0591" y="457.9199">parseOutput(output)</text></g><g class="message" data-participant-1="Engine" data-participant-2="SearchProvider"><polygon fill="#181818" points="431.5659,501.1187,421.5659,505.1187,431.5659,509.1187,427.5659,505.1187" style="stroke:#181818;stroke-width:1;"/><line style="stroke:#181818;stroke-width:1;stroke-dasharray:2,2;" x1="425.5659" x2="652.0591" y1="505.1187" y2="505.1187"/><text fill="#000000" font-family="monospace" font-size="13" lengthAdjust="spacing" textLength="86.0933" x="437.5659" y="500.0528">identifiers</text></g><g class="message" data-participant-1="SearchProvider" data-participant-2="Shell"><polygon fill="#181818" points="81.6728,547.9575,71.6728,551.9575,81.6728,555.9575,77.6728,551.9575" style="stroke:#181818;stroke-width:1;"/><line style="stroke:#181818;stroke-width:1;stroke-dasharray:2,2;" x1="75.6728" x2="414.5659" y1="551.9575" y2="551.9575"/><text fill="#000000" font-family="sans-serif" font-size="13" lengthAdjust="spacing" textLength="47.658" x="87.6728" y="531.0157">&#171;async&#187;</text><text fill="#000000" font-family="monospace" font-size="13" lengthAdjust="spacing" textLength="86.0933" x="87.6728" y="546.8916">identifiers</text></g><path d="M25,592.9575 L25,619.9575 L880,619.9575 L880,602.9575 L870,592.9575 L25,592.9575" fill="#FEFFDD" style="stroke:#181818;stroke-width:0.5;"/><path d="M870,592.9575 L870,602.9575 L880,602.9575 L870,592.9575" fill="#FEFFDD" style="stroke:#181818;stroke-width:0.5;"/><text fill="#000000" font-family="sans-serif" font-size="13" lengthAdjust="spacing" textLength="299.5332" x="298.5756" y="611.8545">User refines query - Shell requests refines results</text><g class="message" data-participant-1="Shell" data-participant-2="SearchProvider"><polygon fill="#181818" points="398.5659,667.7963,408.5659,671.7963,398.5659,675.7963,402.5659,671.7963" style="stroke:#181818;stroke-width:1;"/><line style="stroke:#181818;stroke-width:1;" x1="70.6728" x2="404.5659" y1="671.7963" y2="671.7963"/><text fill="#000000" font-family="monospace" font-size="13" lengthAdjust="spacing" textLength="320.8931" x="77.6728" y="666.7304">getSubsearchResultSet(identifiers,&#160;terms)</text></g><g class="message" data-participant-1="SearchProvider" data-participant-2="SearchProvider"><line style="stroke:#181818;stroke-width:1;" x1="420.5659" x2="462.5659" y1="700.9291" y2="700.9291"/><line style="stroke:#181818;stroke-width:1;" x1="462.5659" x2="462.5659" y1="700.9291" y2="713.9291"/><line style="stroke:#181818;stroke-width:1;" x1="421.5659" x2="462.5659" y1="713.9291" y2="713.9291"/><polygon fill="#181818" points="431.5659,709.9291,421.5659,713.9291,431.5659,717.9291,427.5659,713.9291" style="stroke:#181818;stroke-width:1;"/><text fill="#000000" font-family="monospace" font-size="13" lengthAdjust="spacing" textLength="203.4932" x="427.5659" y="695.8632">getInitialResultSet(terms)</text></g><g class="message" data-participant-1="SearchProvider" data-participant-2="Shell"><polygon fill="#181818" points="81.6728,756.768,71.6728,760.768,81.6728,764.768,77.6728,760.768" style="stroke:#181818;stroke-width:1;"/><line style="stroke:#181818;stroke-width:1;stroke-dasharray:2,2;" x1="75.6728" x2="414.5659" y1="760.768" y2="760.768"/><text fill="#000000" font-family="sans-serif" font-size="13" lengthAdjust="spacing" textLength="47.658" x="87.6728" y="739.8262">&#171;async&#187;</text><text fill="#000000" font-family="monospace" font-size="13" lengthAdjust="spacing" textLength="86.0933" x="87.6728" y="755.7021">identifiers</text></g><path d="M25,801.768 L25,828.768 L880,828.768 L880,811.768 L870,801.768 L25,801.768" fill="#FEFFDD" style="stroke:#181818;stroke-width:0.5;"/><path d="M870,801.768 L870,811.768 L880,811.768 L870,801.768" fill="#FEFFDD" style="stroke:#181818;stroke-width:0.5;"/><text fill="#000000" font-family="sans-serif" font-size="13" lengthAdjust="spacing" textLength="247.1953" x="324.7446" y="820.665">Shell may request result count limitation</text><g class="message" data-participant-1="Shell" data-participant-2="SearchProvider"><polygon fill="#181818" points="398.5659,876.6068,408.5659,880.6068,398.5659,884.6068,402.5659,880.6068" style="stroke:#181818;stroke-width:1;"/><line style="stroke:#181818;stroke-width:1;" x1="70.6728" x2="404.5659" y1="880.6068" y2="880.6068"/><text fill="#000000" font-family="monospace" font-size="13" lengthAdjust="spacing" textLength="297.4131" x="77.6728" y="875.5409">filterResults(identifiers,&#160;maxResults)</text></g><g class="message" data-participant-1="SearchProvider" data-participant-2="SearchProvider"><line style="stroke:#181818;stroke-width:1;" x1="420.5659" x2="462.5659" y1="909.7396" y2="909.7396"/><line style="stroke:#181818;stroke-width:1;" x1="462.5659" x2="462.5659" y1="909.7396" y2="922.7396"/><line style="stroke:#181818;stroke-width:1;" x1="421.5659" x2="462.5659" y1="922.7396" y2="922.7396"/><polygon fill="#181818" points="431.5659,918.7396,421.5659,922.7396,431.5659,926.7396,427.5659,922.7396" style="stroke:#181818;stroke-width:1;"/><text fill="#000000" font-family="monospace" font-size="13" lengthAdjust="spacing" textLength="148.7065" x="427.5659" y="904.6737">identifiers.slice()</text></g><g class="message" data-participant-1="SearchProvider" data-participant-2="Shell"><polygon fill="#181818" points="81.6728,947.8724,71.6728,951.8724,81.6728,955.8724,77.6728,951.8724" style="stroke:#181818;stroke-width:1;"/><line style="stroke:#181818;stroke-width:1;stroke-dasharray:2,2;" x1="75.6728" x2="414.5659" y1="951.8724" y2="951.8724"/><text fill="#000000" font-family="monospace" font-size="13" lengthAdjust="spacing" textLength="86.0933" x="87.6728" y="946.8065">identifiers</text></g><path d="M25,992.8724 L25,1019.8724 L880,1019.8724 L880,1002.8724 L870,992.8724 L25,992.8724" fill="#FEFFDD" style="stroke:#181818;stroke-width:0.5;"/><path d="M870,992.8724 L870,1002.8724 L880,1002.8724 L870,992.8724" fill="#FEFFDD" style="stroke:#181818;stroke-width:0.5;"/><text fill="#000000" font-family="sans-serif" font-size="13" lengthAdjust="spacing" textLength="172.1201" x="362.2822" y="1011.7694">Shell prepares result display</text><path d="M25,1030.5784 L25,1057.5784 L880,1057.5784 L880,1040.5784 L870,1030.5784 L25,1030.5784" fill="#FEFFDD" style="stroke:#181818;stroke-width:0.5;"/><path d="M870,1030.5784 L870,1040.5784 L880,1040.5784 L870,1030.5784" fill="#FEFFDD" style="stroke:#181818;stroke-width:0.5;"/><text fill="#000000" font-family="sans-serif" font-size="13" lengthAdjust="spacing" textLength="177.4371" x="359.6237" y="1049.4755">Shell fetches result metadata</text><g class="message" data-participant-1="Shell" data-participant-2="SearchProvider"><polygon fill="#181818" points="398.5659,1105.4173,408.5659,1109.4173,398.5659,1113.4173,402.5659,1109.4173" style="stroke:#181818;stroke-width:1;"/><line style="stroke:#181818;stroke-width:1;" x1="70.6728" x2="404.5659" y1="1109.4173" y2="1109.4173"/><text fill="#000000" font-family="monospace" font-size="13" lengthAdjust="spacing" textLength="211.3198" x="77.6728" y="1104.3514">getResultMetas(identifiers)</text></g><path d="M348.4041,1124.4173 L541.2474,1124.4173 L541.2474,1134.1233 L531.2474,1144.1233 L348.4041,1144.1233 L348.4041,1124.4173" fill="#EEEEEE" style="stroke:#AAAAAA;stroke-width:1;"/><rect fill="none" height="218.3052" style="stroke:#AAAAAA;stroke-width:1;" width="542.2804" x="348.4041" y="1124.4173"/><text fill="#000000" font-family="sans-serif" font-size="13" lengthAdjust="spacing" textLength="58.3701" x="363.4041" y="1139.3143">FOREACH</text><text fill="#000000" font-family="monospace" font-size="13" lengthAdjust="spacing" textLength="86.0933" x="425.1542" y="1140.0574">identifiers</text><g class="message" data-participant-1="SearchProvider" data-participant-2="Engine"><polygon fill="#181818" points="636.0591,1186.2561,646.0591,1190.2561,636.0591,1194.2561,640.0591,1190.2561" style="stroke:#181818;stroke-width:1;"/><line style="stroke:#181818;stroke-width:1;" x1="420.5659" x2="642.0591" y1="1190.2561" y2="1190.2561"/><text fill="#000000" font-family="monospace" font-size="13" lengthAdjust="spacing" textLength="180.0132" x="427.5659" y="1185.1902">getPageInfo(identifier)</text></g><g class="message" data-participant-1="Engine" data-participant-2="Subprocess"><polygon fill="#181818" points="778.8467,1215.3889,788.8467,1219.3889,778.8467,1223.3889,782.8467,1219.3889" style="stroke:#181818;stroke-width:1;"/><line style="stroke:#181818;stroke-width:1;" x1="658.0591" x2="784.8467" y1="1219.3889" y2="1219.3889"/><text fill="#000000" font-family="monospace" font-size="13" lengthAdjust="spacing" textLength="78.2666" x="665.0591" y="1214.323">run&#160;whatis</text></g><rect fill="#E2E2F0" height="33.0679" rx="2.5" ry="2.5" style="stroke:#181818;stroke-width:0.5;" width="89.8377" x="790.8467" y="1198.2561"/><text fill="#000000" font-family="sans-serif" font-size="14" lengthAdjust="spacing" textLength="75.8377" x="797.8467" y="1220.222">Subprocess</text><g class="message" data-participant-1="Subprocess" data-participant-2="Engine"><polygon fill="#181818" points="669.0591,1259.4568,659.0591,1263.4568,669.0591,1267.4568,665.0591,1263.4568" style="stroke:#181818;stroke-width:1;"/><line style="stroke:#181818;stroke-width:1;stroke-dasharray:2,2;" x1="663.0591" x2="834.7656" y1="1263.4568" y2="1263.4568"/><text fill="#000000" font-family="monospace" font-size="13" lengthAdjust="spacing" textLength="46.96" x="675.0591" y="1258.3909">output</text></g><line style="stroke:#A80036;stroke-width:2;" x1="826.7656" x2="844.7656" y1="1254.4568" y2="1272.4568"/><line style="stroke:#A80036;stroke-width:2;" x1="826.7656" x2="844.7656" y1="1272.4568" y2="1254.4568"/><g class="message" data-participant-1="Engine" data-participant-2="Engine"><line style="stroke:#181818;stroke-width:1;" x1="658.0591" x2="700.0591" y1="1292.5896" y2="1292.5896"/><line style="stroke:#181818;stroke-width:1;" x1="700.0591" x2="700.0591" y1="1292.5896" y2="1305.5896"/><line style="stroke:#181818;stroke-width:1;" x1="659.0591" x2="700.0591" y1="1305.5896" y2="1305.5896"/><polygon fill="#181818" points="669.0591,1301.5896,659.0591,1305.5896,669.0591,1309.5896,665.0591,1305.5896" style="stroke:#181818;stroke-width:1;"/><text fill="#000000" font-family="monospace" font-size="13" lengthAdjust="spacing" textLength="148.7065" x="665.0591" y="1287.5237">parseOutput(output)</text></g><g class="message" data-participant-1="Engine" data-participant-2="SearchProvider"><polygon fill="#181818" points="431.5659,1330.7225,421.5659,1334.7225,431.5659,1338.7225,427.5659,1334.7225" style="stroke:#181818;stroke-width:1;"/><line style="stroke:#181818;stroke-width:1;stroke-dasharray:2,2;" x1="425.5659" x2="652.0591" y1="1334.7225" y2="1334.7225"/><text fill="#000000" font-family="monospace" font-size="13" lengthAdjust="spacing" textLength="156.5332" x="437.5659" y="1329.6565">[title,&#160;description]</text></g><g class="message" data-participant-1="SearchProvider" data-participant-2="Shell"><polygon fill="#181818" points="81.6728,1384.5613,71.6728,1388.5613,81.6728,1392.5613,77.6728,1388.5613" style="stroke:#181818;stroke-width:1;"/><line style="stroke:#181818;stroke-width:1;stroke-dasharray:2,2;" x1="75.6728" x2="414.5659" y1="1388.5613" y2="1388.5613"/><text fill="#000000" font-family="sans-serif" font-size="13" lengthAdjust="spacing" textLength="47.658" x="87.6728" y="1367.6195">&#171;async&#187;</text><text fill="#000000" font-family="monospace" font-size="13" lengthAdjust="spacing" textLength="86.0933" x="87.6728" y="1383.4954">resultMetas</text></g><path d="M25,1429.5613 L25,1456.5613 L880,1456.5613 L880,1439.5613 L870,1429.5613 L25,1429.5613" fill="#FEFFDD" style="stroke:#181818;stroke-width:0.5;"/><path d="M870,1429.5613 L870,1439.5613 L880,1439.5613 L870,1429.5613" fill="#FEFFDD" style="stroke:#181818;stroke-width:0.5;"/><text fill="#000000" font-family="sans-serif" font-size="13" lengthAdjust="spacing" textLength="175.3832" x="360.6506" y="1448.4583">Shell requests result widgets</text><path d="M10,1494.2673 L202.8433,1494.2673 L202.8433,1503.9733 L192.8433,1513.9733 L10,1513.9733 L10,1494.2673" fill="#EEEEEE" style="stroke:#AAAAAA;stroke-width:1;"/><rect fill="none" height="102.9716" style="stroke:#AAAAAA;stroke-width:1;" width="472.7277" x="10" y="1494.2673"/><text fill="#000000" font-family="sans-serif" font-size="13" lengthAdjust="spacing" textLength="58.3701" x="25" y="1509.1643">FOREACH</text><text fill="#000000" font-family="monospace" font-size="13" lengthAdjust="spacing" textLength="86.0933" x="86.7501" y="1509.9074">resultMetas</text><g class="message" data-participant-1="Shell" data-participant-2="SearchProvider"><polygon fill="#181818" points="398.5659,1556.1061,408.5659,1560.1061,398.5659,1564.1061,402.5659,1560.1061" style="stroke:#181818;stroke-width:1;"/><line style="stroke:#181818;stroke-width:1;" x1="70.6728" x2="404.5659" y1="1560.1061" y2="1560.1061"/><text fill="#000000" font-family="monospace" font-size="13" lengthAdjust="spacing" textLength="234.7998" x="77.6728" y="1555.0402">createResultObject(ResultMeta)</text></g><g class="message" data-participant-1="SearchProvider" data-participant-2="Shell"><polygon fill="#181818" points="81.6728,1585.2389,71.6728,1589.2389,81.6728,1593.2389,77.6728,1589.2389" style="stroke:#181818;stroke-width:1;"/><line style="stroke:#181818;stroke-width:1;stroke-dasharray:2,2;" x1="75.6728" x2="414.5659" y1="1589.2389" y2="1589.2389"/><text fill="#000000" font-family="monospace" font-size="13" lengthAdjust="spacing" textLength="31.3066" x="87.6728" y="1584.173">null</text></g><g class="message" data-participant-1="Shell" data-participant-2="Shell"><line style="stroke:#181818;stroke-width:1;" x1="70.6728" x2="112.6728" y1="1652.945" y2="1652.945"/><line style="stroke:#181818;stroke-width:1;" x1="112.6728" x2="112.6728" y1="1652.945" y2="1665.945"/><line style="stroke:#181818;stroke-width:1;" x1="71.6728" x2="112.6728" y1="1665.945" y2="1665.945"/><polygon fill="#181818" points="81.6728,1661.945,71.6728,1665.945,81.6728,1669.945,77.6728,1665.945" style="stroke:#181818;stroke-width:1;"/><text fill="#000000" font-family="sans-serif" font-size="13" lengthAdjust="spacing" textLength="169.6241" x="77.6728" y="1647.136">displays search results in UI</text></g><path d="M25,1731.945 L25,1758.945 L880,1758.945 L880,1741.945 L870,1731.945 L25,1731.945" fill="#FEFFDD" style="stroke:#181818;stroke-width:0.5;"/><path d="M870,1731.945 L870,1741.945 L880,1741.945 L870,1731.945" fill="#FEFFDD" style="stroke:#181818;stroke-width:0.5;"/><text fill="#000000" font-family="sans-serif" font-size="13" lengthAdjust="spacing" textLength="148.6161" x="374.0342" y="1750.842">User activate result item</text><g class="message" data-participant-1="Shell" data-participant-2="SearchProvider"><polygon fill="#181818" points="403.5659,1806.7838,413.5659,1810.7838,403.5659,1814.7838,407.5659,1810.7838" style="stroke:#181818;stroke-width:1;"/><line style="stroke:#181818;stroke-width:1;" x1="70.6728" x2="409.5659" y1="1810.7838" y2="1810.7838"/><text fill="#000000" font-family="monospace" font-size="13" lengthAdjust="spacing" textLength="203.4932" x="77.6728" y="1805.7179">activateResult(identifier)</text></g><g class="message" data-participant-1="SearchProvider" data-participant-2="Subprocess"><polygon fill="#181818" points="778.8467,1835.9166,788.8467,1839.9166,778.8467,1843.9166,782.8467,1839.9166" style="stroke:#181818;stroke-width:1;"/><line style="stroke:#181818;stroke-width:1;" x1="415.5659" x2="784.8467" y1="1839.9166" y2="1839.9166"/><text fill="#000000" font-family="monospace" font-size="13" lengthAdjust="spacing" textLength="164.3599" x="422.5659" y="1834.8507">gnome-terminal&#160;--&#160;man</text></g><rect fill="#E2E2F0" height="33.0679" rx="2.5" ry="2.5" style="stroke:#181818;stroke-width:0.5;" width="89.8377" x="790.8467" y="1818.7838"/><text fill="#000000" font-family="sans-serif" font-size="14" lengthAdjust="spacing" textLength="75.8377" x="797.8467" y="1840.7497">Subprocess</text><path d="M25,1895.8517 L25,1922.8517 L880,1922.8517 L880,1905.8517 L870,1895.8517 L25,1895.8517" fill="#FEFFDD" style="stroke:#181818;stroke-width:0.5;"/><path d="M870,1895.8517 L870,1905.8517 L880,1905.8517 L870,1895.8517" fill="#FEFFDD" style="stroke:#181818;stroke-width:0.5;"/><text fill="#000000" font-family="sans-serif" font-size="13" lengthAdjust="spacing" textLength="207.2072" x="344.7386" y="1914.7487">User triggers 'More results' action</text><g class="message" data-participant-1="Shell" data-participant-2="SearchProvider"><polygon fill="#181818" points="403.5659,1970.6905,413.5659,1974.6905,403.5659,1978.6905,407.5659,1974.6905" style="stroke:#181818;stroke-width:1;"/><line style="stroke:#181818;stroke-width:1;" x1="70.6728" x2="409.5659" y1="1974.6905" y2="1974.6905"/><text fill="#000000" font-family="monospace" font-size="13" lengthAdjust="spacing" textLength="148.7065" x="77.6728" y="1969.6246">launchSearch(terms)</text></g><g class="message" data-participant-1="SearchProvider" data-participant-2="Subprocess"><polygon fill="#181818" points="778.8467,1999.8233,788.8467,2003.8233,778.8467,2007.8233,782.8467,2003.8233" style="stroke:#181818;stroke-width:1;"/><line style="stroke:#181818;stroke-width:1;" x1="415.5659" x2="784.8467" y1="2003.8233" y2="2003.8233"/><text fill="#000000" font-family="monospace" font-size="13" lengthAdjust="spacing" textLength="195.6665" x="422.5659" y="1998.7574">gnome-terminal&#160;--&#160;apropos</text></g><rect fill="#E2E2F0" height="33.0679" rx="2.5" ry="2.5" style="stroke:#181818;stroke-width:0.5;" width="89.8377" x="790.8467" y="1982.6905"/><text fill="#000000" font-family="sans-serif" font-size="14" lengthAdjust="spacing" textLength="75.8377" x="797.8467" y="2004.6565">Subprocess</text><!--SRC=[hLRDKjim4BxhAJJcG9Y9a-armp13cG2PQHe6ogdq8EoDhM9BhYG3AV14VOJUUBAkB2UEVn92MmvCijhzzkTRVKhCGw1pASsjV2JaK9j50aU4qaZ9FADF-8dIJrp0bvW7TmAqfX_wA-E9JAGQqJt66DfUbc7dm49GPV2f5ERAej8iOLpqtuD8wKSMt9qXfWYB4xe706Kg8GsKESwbuZyn3qkE4nw958IX0Vu3LVWU3iksICQKuG7F63fSnP0ab6dgdNsUJSVkkrTt0QQ2-4B9UvoIgXsDHOJb5k7EonbkH6yuBC-uBK2mX1vVJ8R3WmPqVfif6M3xX0m60r9qmm8bjHwLfIc8k4O8JNMHWMPb8PZ4yrWOBWlh7NWUPgCc1fhACCTPypHBmCw1YuXwtlZHWD1S2krv1sJVjt_a-VcP49VAzu-QpRg3GxzX7o7Q4-LXdx8icuYvf2-Urz72jSODC8iCLjN_o44jg5ysnmKtd9dgM04wQDDLt5573H6OIG6HN8BE4tC5feUpIZNEWh30y7i4R_P4wjyjikFA8hewfanSi0Xq1vXp9IHGK61N39Q4sq9NHWkfSe5ZKZAJkbPL5Qd0v4gWgynDbXlq2d48IYvg2rBXL-NYCccO5L4z5soBNU5XVqZ-dEFwM7vA- -ilfXSYUFrz8rektHGgc6D2tM2l94klZbL1WdRixK8UjkS6Nj6tLa-VlibbcyftBidVZCJrbBB5SW9bupH0YJ8quIatpE0zst4GSvvWFQuuNHz0oXvB-xzEOGrse1CUWDKBid5LDZITAS2LMr5DGwvHq1UqotSE9eWhrnGC2vbXks-7wtoASRMfRBtRxiKwdLsEZq_EMsqLIUrRiKq2CBEz_5RMrjBQh3Qo9GJMs1O3Qzqc20ynReXkOZO0shfWhLtQK4_tbZxKiByQRXBeMzX0ySpkxRVIXu08krL3LTHisPOrWIXMu867EDoQFZJvgWDRbuAkpNlYHkzMPNRx7GBJg_QcHLfZNMg343c-_9xhsIQkajeFe-MkhxrLnSMqR-xrn7MpGJvNwSivS0FfZjTW6UfwQknZU-qwbA2sUf6GAVXM_RZzJUBxg332ChZfxLOyYkoFZ_sfLClwzNxHqSxwbh1S1B6pLyhxFugldjMY_Zy0]--></g></svg>